<?xml version="1.0" encoding="utf-8" standalone="no"?>
<!DOCTYPE svg PUBLIC "-//W3C//DTD SVG 1.1//EN"
  "http://www.w3.org/Graphics/SVG/1.1/DTD/svg11.dtd">
<svg xmlns:xlink="http://www.w3.org/1999/xlink" width="460.8pt" height="345.6pt" viewBox="0 0 460.8 345.6" xmlns="http://www.w3.org/2000/svg" version="1.1">
 <metadata>
  <rdf:RDF xmlns:dc="http://purl.org/dc/elements/1.1/" xmlns:cc="http://creativecommons.org/ns#" xmlns:rdf="http://www.w3.org/1999/02/22-rdf-syntax-ns#">
   <cc:Work>
    <dc:type rdf:resource="http://purl.org/dc/dcmitype/StillImage"/>
    <dc:date>2025-01-26T14:48:45.648793</dc:date>
    <dc:format>image/svg+xml</dc:format>
    <dc:creator>
     <cc:Agent>
      <dc:title>Matplotlib v3.9.4, https://matplotlib.org/</dc:title>
     </cc:Agent>
    </dc:creator>
   </cc:Work>
  </rdf:RDF>
 </metadata>
 <defs>
  <style type="text/css">*{stroke-linejoin: round; stroke-linecap: butt}</style>
 </defs>
 <g id="figure_1">
  <g id="patch_1">
   <path d="M 0 345.6 
L 460.8 345.6 
L 460.8 0 
L 0 0 
z
" style="fill: #ffffff"/>
  </g>
  <g id="axes_1">
   <g id="patch_2">
    <path d="M 57.6 307.584 
L 414.72 307.584 
L 414.72 41.472 
L 57.6 41.472 
z
" style="fill: #ffffff"/>
   </g>
   <g id="patch_3">
    <path d="M 73.832727 307.584 
L 73.83425 307.584 
L 73.83425 56.653307 
L 73.832727 56.653307 
z
" clip-path="url(#pba328d7fed)" style="fill: #1f77b4"/>
   </g>
   <g id="patch_4">
    <path d="M 73.836535 307.584 
L 73.838058 307.584 
L 73.838058 307.584 
L 73.836535 307.584 
z
" clip-path="url(#pba328d7fed)" style="fill: #1f77b4"/>
   </g>
   <g id="patch_5">
    <path d="M 73.840342 307.584 
L 73.841865 307.584 
L 73.841865 307.584 
L 73.840342 307.584 
z
" clip-path="url(#pba328d7fed)" style="fill: #1f77b4"/>
   </g>
   <g id="patch_6">
    <path d="M 73.84415 307.584 
L 73.845673 307.584 
L 73.845673 307.584 
L 73.84415 307.584 
z
" clip-path="url(#pba328d7fed)" style="fill: #1f77b4"/>
   </g>
   <g id="patch_7">
    <path d="M 73.847957 307.584 
L 73.84948 307.584 
L 73.84948 307.584 
L 73.847957 307.584 
z
" clip-path="url(#pba328d7fed)" style="fill: #1f77b4"/>
   </g>
   <g id="patch_8">
    <path d="M 73.851764 307.584 
L 73.853287 307.584 
L 73.853287 307.584 
L 73.851764 307.584 
z
" clip-path="url(#pba328d7fed)" style="fill: #1f77b4"/>
   </g>
   <g id="patch_9">
    <path d="M 73.855572 307.584 
L 73.857095 307.584 
L 73.857095 307.584 
L 73.855572 307.584 
z
" clip-path="url(#pba328d7fed)" style="fill: #1f77b4"/>
   </g>
   <g id="patch_10">
    <path d="M 73.859379 307.584 
L 73.860902 307.584 
L 73.860902 307.584 
L 73.859379 307.584 
z
" clip-path="url(#pba328d7fed)" style="fill: #1f77b4"/>
   </g>
   <g id="patch_11">
    <path d="M 73.863187 307.584 
L 73.86471 307.584 
L 73.86471 307.584 
L 73.863187 307.584 
z
" clip-path="url(#pba328d7fed)" style="fill: #1f77b4"/>
   </g>
   <g id="patch_12">
    <path d="M 73.866994 307.584 
L 73.868517 307.584 
L 73.868517 307.584 
L 73.866994 307.584 
z
" clip-path="url(#pba328d7fed)" style="fill: #1f77b4"/>
   </g>
   <g id="patch_13">
    <path d="M 73.83425 307.584 
L 73.835773 307.584 
L 73.835773 307.584 
L 73.83425 307.584 
z
" clip-path="url(#pba328d7fed)" style="fill: #ff7f0e"/>
   </g>
   <g id="patch_14">
    <path d="M 73.838058 307.584 
L 73.839581 307.584 
L 73.839581 307.584 
L 73.838058 307.584 
z
" clip-path="url(#pba328d7fed)" style="fill: #ff7f0e"/>
   </g>
   <g id="patch_15">
    <path d="M 73.841865 307.584 
L 73.843388 307.584 
L 73.843388 307.584 
L 73.841865 307.584 
z
" clip-path="url(#pba328d7fed)" style="fill: #ff7f0e"/>
   </g>
   <g id="patch_16">
    <path d="M 73.845673 307.584 
L 73.847196 307.584 
L 73.847196 307.584 
L 73.845673 307.584 
z
" clip-path="url(#pba328d7fed)" style="fill: #ff7f0e"/>
   </g>
   <g id="patch_17">
    <path d="M 73.84948 307.584 
L 73.851003 307.584 
L 73.851003 307.584 
L 73.84948 307.584 
z
" clip-path="url(#pba328d7fed)" style="fill: #ff7f0e"/>
   </g>
   <g id="patch_18">
    <path d="M 73.853287 307.584 
L 73.85481 307.584 
L 73.85481 307.584 
L 73.853287 307.584 
z
" clip-path="url(#pba328d7fed)" style="fill: #ff7f0e"/>
   </g>
   <g id="patch_19">
    <path d="M 73.857095 307.584 
L 73.858618 307.584 
L 73.858618 307.584 
L 73.857095 307.584 
z
" clip-path="url(#pba328d7fed)" style="fill: #ff7f0e"/>
   </g>
   <g id="patch_20">
    <path d="M 73.860902 307.584 
L 73.862425 307.584 
L 73.862425 307.584 
L 73.860902 307.584 
z
" clip-path="url(#pba328d7fed)" style="fill: #ff7f0e"/>
   </g>
   <g id="patch_21">
    <path d="M 73.86471 307.584 
L 73.866233 307.584 
L 73.866233 307.584 
L 73.86471 307.584 
z
" clip-path="url(#pba328d7fed)" style="fill: #ff7f0e"/>
   </g>
   <g id="patch_22">
    <path d="M 73.868517 307.584 
L 73.87004 307.584 
L 73.87004 54.144 
L 73.868517 54.144 
z
" clip-path="url(#pba328d7fed)" style="fill: #ff7f0e"/>
   </g>
   <g id="patch_23">
    <path d="M 73.832937 307.584 
L 73.835298 307.584 
L 73.835298 56.653307 
L 73.832937 56.653307 
z
" clip-path="url(#pba328d7fed)" style="fill: #2ca02c"/>
   </g>
   <g id="patch_24">
    <path d="M 73.83884 307.584 
L 73.841201 307.584 
L 73.841201 307.584 
L 73.83884 307.584 
z
" clip-path="url(#pba328d7fed)" style="fill: #2ca02c"/>
   </g>
   <g id="patch_25">
    <path d="M 73.844742 307.584 
L 73.847103 307.584 
L 73.847103 307.584 
L 73.844742 307.584 
z
" clip-path="url(#pba328d7fed)" style="fill: #2ca02c"/>
   </g>
   <g id="patch_26">
    <path d="M 73.850645 307.584 
L 73.853006 307.584 
L 73.853006 307.584 
L 73.850645 307.584 
z
" clip-path="url(#pba328d7fed)" style="fill: #2ca02c"/>
   </g>
   <g id="patch_27">
    <path d="M 73.856548 307.584 
L 73.858909 307.584 
L 73.858909 307.584 
L 73.856548 307.584 
z
" clip-path="url(#pba328d7fed)" style="fill: #2ca02c"/>
   </g>
   <g id="patch_28">
    <path d="M 73.862451 307.584 
L 73.864812 307.584 
L 73.864812 307.584 
L 73.862451 307.584 
z
" clip-path="url(#pba328d7fed)" style="fill: #2ca02c"/>
   </g>
   <g id="patch_29">
    <path d="M 73.868354 307.584 
L 73.870715 307.584 
L 73.870715 307.584 
L 73.868354 307.584 
z
" clip-path="url(#pba328d7fed)" style="fill: #2ca02c"/>
   </g>
   <g id="patch_30">
    <path d="M 73.874256 307.584 
L 73.876617 307.584 
L 73.876617 307.584 
L 73.874256 307.584 
z
" clip-path="url(#pba328d7fed)" style="fill: #2ca02c"/>
   </g>
   <g id="patch_31">
    <path d="M 73.880159 307.584 
L 73.88252 307.584 
L 73.88252 307.584 
L 73.880159 307.584 
z
" clip-path="url(#pba328d7fed)" style="fill: #2ca02c"/>
   </g>
   <g id="patch_32">
    <path d="M 73.886062 307.584 
L 73.888423 307.584 
L 73.888423 307.584 
L 73.886062 307.584 
z
" clip-path="url(#pba328d7fed)" style="fill: #2ca02c"/>
   </g>
   <g id="patch_33">
    <path d="M 73.835298 307.584 
L 73.837659 307.584 
L 73.837659 307.584 
L 73.835298 307.584 
z
" clip-path="url(#pba328d7fed)" style="fill: #d62728"/>
   </g>
   <g id="patch_34">
    <path d="M 73.841201 307.584 
L 73.843562 307.584 
L 73.843562 307.584 
L 73.841201 307.584 
z
" clip-path="url(#pba328d7fed)" style="fill: #d62728"/>
   </g>
   <g id="patch_35">
    <path d="M 73.847103 307.584 
L 73.849465 307.584 
L 73.849465 307.584 
L 73.847103 307.584 
z
" clip-path="url(#pba328d7fed)" style="fill: #d62728"/>
   </g>
   <g id="patch_36">
    <path d="M 73.853006 307.584 
L 73.855367 307.584 
L 73.855367 307.584 
L 73.853006 307.584 
z
" clip-path="url(#pba328d7fed)" style="fill: #d62728"/>
   </g>
   <g id="patch_37">
    <path d="M 73.858909 307.584 
L 73.86127 307.584 
L 73.86127 307.584 
L 73.858909 307.584 
z
" clip-path="url(#pba328d7fed)" style="fill: #d62728"/>
   </g>
   <g id="patch_38">
    <path d="M 73.864812 307.584 
L 73.867173 307.584 
L 73.867173 307.584 
L 73.864812 307.584 
z
" clip-path="url(#pba328d7fed)" style="fill: #d62728"/>
   </g>
   <g id="patch_39">
    <path d="M 73.870715 307.584 
L 73.873076 307.584 
L 73.873076 307.584 
L 73.870715 307.584 
z
" clip-path="url(#pba328d7fed)" style="fill: #d62728"/>
   </g>
   <g id="patch_40">
    <path d="M 73.876617 307.584 
L 73.878979 307.584 
L 73.878979 307.584 
L 73.876617 307.584 
z
" clip-path="url(#pba328d7fed)" style="fill: #d62728"/>
   </g>
   <g id="patch_41">
    <path d="M 73.88252 307.584 
L 73.884881 307.584 
L 73.884881 307.584 
L 73.88252 307.584 
z
" clip-path="url(#pba328d7fed)" style="fill: #d62728"/>
   </g>
   <g id="patch_42">
    <path d="M 73.888423 307.584 
L 73.890784 307.584 
L 73.890784 54.144 
L 73.888423 54.144 
z
" clip-path="url(#pba328d7fed)" style="fill: #d62728"/>
   </g>
   <g id="patch_43">
    <path d="M 77.111689 307.584 
L 90.22906 307.584 
L 90.22906 56.653307 
L 77.111689 56.653307 
z
" clip-path="url(#pba328d7fed)" style="fill: #9467bd"/>
   </g>
   <g id="patch_44">
    <path d="M 109.905116 307.584 
L 123.022487 307.584 
L 123.022487 307.584 
L 109.905116 307.584 
z
" clip-path="url(#pba328d7fed)" style="fill: #9467bd"/>
   </g>
   <g id="patch_45">
    <path d="M 142.698543 307.584 
L 155.815914 307.584 
L 155.815914 307.584 
L 142.698543 307.584 
z
" clip-path="url(#pba328d7fed)" style="fill: #9467bd"/>
   </g>
   <g id="patch_46">
    <path d="M 175.49197 307.584 
L 188.609341 307.584 
L 188.609341 307.584 
L 175.49197 307.584 
z
" clip-path="url(#pba328d7fed)" style="fill: #9467bd"/>
   </g>
   <g id="patch_47">
    <path d="M 208.285397 307.584 
L 221.402768 307.584 
L 221.402768 307.584 
L 208.285397 307.584 
z
" clip-path="url(#pba328d7fed)" style="fill: #9467bd"/>
   </g>
   <g id="patch_48">
    <path d="M 241.078824 307.584 
L 254.196194 307.584 
L 254.196194 307.584 
L 241.078824 307.584 
z
" clip-path="url(#pba328d7fed)" style="fill: #9467bd"/>
   </g>
   <g id="patch_49">
    <path d="M 273.872251 307.584 
L 286.989621 307.584 
L 286.989621 307.584 
L 273.872251 307.584 
z
" clip-path="url(#pba328d7fed)" style="fill: #9467bd"/>
   </g>
   <g id="patch_50">
    <path d="M 306.665677 307.584 
L 319.783048 307.584 
L 319.783048 307.584 
L 306.665677 307.584 
z
" clip-path="url(#pba328d7fed)" style="fill: #9467bd"/>
   </g>
   <g id="patch_51">
    <path d="M 339.459104 307.584 
L 352.576475 307.584 
L 352.576475 307.584 
L 339.459104 307.584 
z
" clip-path="url(#pba328d7fed)" style="fill: #9467bd"/>
   </g>
   <g id="patch_52">
    <path d="M 372.252531 307.584 
L 385.369902 307.584 
L 385.369902 307.584 
L 372.252531 307.584 
z
" clip-path="url(#pba328d7fed)" style="fill: #9467bd"/>
   </g>
   <g id="patch_53">
    <path d="M 90.22906 307.584 
L 103.346431 307.584 
L 103.346431 307.584 
L 90.22906 307.584 
z
" clip-path="url(#pba328d7fed)" style="fill: #8c564b"/>
   </g>
   <g id="patch_54">
    <path d="M 123.022487 307.584 
L 136.139858 307.584 
L 136.139858 307.584 
L 123.022487 307.584 
z
" clip-path="url(#pba328d7fed)" style="fill: #8c564b"/>
   </g>
   <g id="patch_55">
    <path d="M 155.815914 307.584 
L 168.933285 307.584 
L 168.933285 307.584 
L 155.815914 307.584 
z
" clip-path="url(#pba328d7fed)" style="fill: #8c564b"/>
   </g>
   <g id="patch_56">
    <path d="M 188.609341 307.584 
L 201.726711 307.584 
L 201.726711 307.584 
L 188.609341 307.584 
z
" clip-path="url(#pba328d7fed)" style="fill: #8c564b"/>
   </g>
   <g id="patch_57">
    <path d="M 221.402768 307.584 
L 234.520138 307.584 
L 234.520138 307.584 
L 221.402768 307.584 
z
" clip-path="url(#pba328d7fed)" style="fill: #8c564b"/>
   </g>
   <g id="patch_58">
    <path d="M 254.196194 307.584 
L 267.313565 307.584 
L 267.313565 307.584 
L 254.196194 307.584 
z
" clip-path="url(#pba328d7fed)" style="fill: #8c564b"/>
   </g>
   <g id="patch_59">
    <path d="M 286.989621 307.584 
L 300.106992 307.584 
L 300.106992 307.584 
L 286.989621 307.584 
z
" clip-path="url(#pba328d7fed)" style="fill: #8c564b"/>
   </g>
   <g id="patch_60">
    <path d="M 319.783048 307.584 
L 332.900419 307.584 
L 332.900419 307.584 
L 319.783048 307.584 
z
" clip-path="url(#pba328d7fed)" style="fill: #8c564b"/>
   </g>
   <g id="patch_61">
    <path d="M 352.576475 307.584 
L 365.693846 307.584 
L 365.693846 307.584 
L 352.576475 307.584 
z
" clip-path="url(#pba328d7fed)" style="fill: #8c564b"/>
   </g>
   <g id="patch_62">
    <path d="M 385.369902 307.584 
L 398.487273 307.584 
L 398.487273 54.144 
L 385.369902 54.144 
z
" clip-path="url(#pba328d7fed)" style="fill: #8c564b"/>
   </g>
   <g id="matplotlib.axis_1">
    <g id="xtick_1">
     <g id="line2d_1">
      <defs>
       <path id="m1f02763bb3" d="M 0 0 
L 0 3.5 
" style="stroke: #000000; stroke-width: 0.8"/>
      </defs>
      <g>
       <use xlink:href="#m1f02763bb3" x="73.832347" y="307.584" style="stroke: #000000; stroke-width: 0.8"/>
      </g>
     </g>
     <g id="text_1">
      <!-- 0 -->
      <g transform="translate(70.651097 322.182437) scale(0.1 -0.1)">
       <defs>
        <path id="DejaVuSans-30" d="M 2034 4250 
Q 1547 4250 1301 3770 
Q 1056 3291 1056 2328 
Q 1056 1369 1301 889 
Q 1547 409 2034 409 
Q 2525 409 2770 889 
Q 3016 1369 3016 2328 
Q 3016 3291 2770 3770 
Q 2525 4250 2034 4250 
z
M 2034 4750 
Q 2819 4750 3233 4129 
Q 3647 3509 3647 2328 
Q 3647 1150 3233 529 
Q 2819 -91 2034 -91 
Q 1250 -91 836 529 
Q 422 1150 422 2328 
Q 422 3509 836 4129 
Q 1250 4750 2034 4750 
z
" transform="scale(0.015625)"/>
       </defs>
       <use xlink:href="#DejaVuSans-30"/>
      </g>
     </g>
    </g>
    <g id="xtick_2">
     <g id="line2d_2">
      <g>
       <use xlink:href="#m1f02763bb3" x="142.355663" y="307.584" style="stroke: #000000; stroke-width: 0.8"/>
      </g>
     </g>
     <g id="text_2">
      <!-- 1 -->
      <g transform="translate(139.174413 322.182437) scale(0.1 -0.1)">
       <defs>
        <path id="DejaVuSans-31" d="M 794 531 
L 1825 531 
L 1825 4091 
L 703 3866 
L 703 4441 
L 1819 4666 
L 2450 4666 
L 2450 531 
L 3481 531 
L 3481 0 
L 794 0 
L 794 531 
z
" transform="scale(0.015625)"/>
       </defs>
       <use xlink:href="#DejaVuSans-31"/>
      </g>
     </g>
    </g>
    <g id="xtick_3">
     <g id="line2d_3">
      <g>
       <use xlink:href="#m1f02763bb3" x="210.87898" y="307.584" style="stroke: #000000; stroke-width: 0.8"/>
      </g>
     </g>
     <g id="text_3">
      <!-- 2 -->
      <g transform="translate(207.69773 322.182437) scale(0.1 -0.1)">
       <defs>
        <path id="DejaVuSans-32" d="M 1228 531 
L 3431 531 
L 3431 0 
L 469 0 
L 469 531 
Q 828 903 1448 1529 
Q 2069 2156 2228 2338 
Q 2531 2678 2651 2914 
Q 2772 3150 2772 3378 
Q 2772 3750 2511 3984 
Q 2250 4219 1831 4219 
Q 1534 4219 1204 4116 
Q 875 4013 500 3803 
L 500 4441 
Q 881 4594 1212 4672 
Q 1544 4750 1819 4750 
Q 2544 4750 2975 4387 
Q 3406 4025 3406 3419 
Q 3406 3131 3298 2873 
Q 3191 2616 2906 2266 
Q 2828 2175 2409 1742 
Q 1991 1309 1228 531 
z
" transform="scale(0.015625)"/>
       </defs>
       <use xlink:href="#DejaVuSans-32"/>
      </g>
     </g>
    </g>
    <g id="xtick_4">
     <g id="line2d_4">
      <g>
       <use xlink:href="#m1f02763bb3" x="279.402297" y="307.584" style="stroke: #000000; stroke-width: 0.8"/>
      </g>
     </g>
     <g id="text_4">
      <!-- 3 -->
      <g transform="translate(276.221047 322.182437) scale(0.1 -0.1)">
       <defs>
        <path id="DejaVuSans-33" d="M 2597 2516 
Q 3050 2419 3304 2112 
Q 3559 1806 3559 1356 
Q 3559 666 3084 287 
Q 2609 -91 1734 -91 
Q 1441 -91 1130 -33 
Q 819 25 488 141 
L 488 750 
Q 750 597 1062 519 
Q 1375 441 1716 441 
Q 2309 441 2620 675 
Q 2931 909 2931 1356 
Q 2931 1769 2642 2001 
Q 2353 2234 1838 2234 
L 1294 2234 
L 1294 2753 
L 1863 2753 
Q 2328 2753 2575 2939 
Q 2822 3125 2822 3475 
Q 2822 3834 2567 4026 
Q 2313 4219 1838 4219 
Q 1578 4219 1281 4162 
Q 984 4106 628 3988 
L 628 4550 
Q 988 4650 1302 4700 
Q 1616 4750 1894 4750 
Q 2613 4750 3031 4423 
Q 3450 4097 3450 3541 
Q 3450 3153 3228 2886 
Q 3006 2619 2597 2516 
z
" transform="scale(0.015625)"/>
       </defs>
       <use xlink:href="#DejaVuSans-33"/>
      </g>
     </g>
    </g>
    <g id="xtick_5">
     <g id="line2d_5">
      <g>
       <use xlink:href="#m1f02763bb3" x="347.925614" y="307.584" style="stroke: #000000; stroke-width: 0.8"/>
      </g>
     </g>
     <g id="text_5">
      <!-- 4 -->
      <g transform="translate(344.744364 322.182437) scale(0.1 -0.1)">
       <defs>
        <path id="DejaVuSans-34" d="M 2419 4116 
L 825 1625 
L 2419 1625 
L 2419 4116 
z
M 2253 4666 
L 3047 4666 
L 3047 1625 
L 3713 1625 
L 3713 1100 
L 3047 1100 
L 3047 0 
L 2419 0 
L 2419 1100 
L 313 1100 
L 313 1709 
L 2253 4666 
z
" transform="scale(0.015625)"/>
       </defs>
       <use xlink:href="#DejaVuSans-34"/>
      </g>
     </g>
    </g>
    <g id="text_6">
     <!-- 1e7 -->
     <g transform="translate(395.841875 334.860562) scale(0.1 -0.1)">
      <defs>
       <path id="DejaVuSans-65" d="M 3597 1894 
L 3597 1613 
L 953 1613 
Q 991 1019 1311 708 
Q 1631 397 2203 397 
Q 2534 397 2845 478 
Q 3156 559 3463 722 
L 3463 178 
Q 3153 47 2828 -22 
Q 2503 -91 2169 -91 
Q 1331 -91 842 396 
Q 353 884 353 1716 
Q 353 2575 817 3079 
Q 1281 3584 2069 3584 
Q 2775 3584 3186 3129 
Q 3597 2675 3597 1894 
z
M 3022 2063 
Q 3016 2534 2758 2815 
Q 2500 3097 2075 3097 
Q 1594 3097 1305 2825 
Q 1016 2553 972 2059 
L 3022 2063 
z
" transform="scale(0.015625)"/>
       <path id="DejaVuSans-37" d="M 525 4666 
L 3525 4666 
L 3525 4397 
L 1831 0 
L 1172 0 
L 2766 4134 
L 525 4134 
L 525 4666 
z
" transform="scale(0.015625)"/>
      </defs>
      <use xlink:href="#DejaVuSans-31"/>
      <use xlink:href="#DejaVuSans-65" x="63.623047"/>
      <use xlink:href="#DejaVuSans-37" x="125.146484"/>
     </g>
    </g>
   </g>
   <g id="matplotlib.axis_2">
    <g id="ytick_1">
     <g id="line2d_6">
      <defs>
       <path id="mb905538759" d="M 0 0 
L -3.5 0 
" style="stroke: #000000; stroke-width: 0.8"/>
      </defs>
      <g>
       <use xlink:href="#mb905538759" x="57.6" y="307.584" style="stroke: #000000; stroke-width: 0.8"/>
      </g>
     </g>
     <g id="text_7">
      <!-- 0 -->
      <g transform="translate(44.2375 311.383219) scale(0.1 -0.1)">
       <use xlink:href="#DejaVuSans-30"/>
      </g>
     </g>
    </g>
    <g id="ytick_2">
     <g id="line2d_7">
      <g>
       <use xlink:href="#mb905538759" x="57.6" y="257.397861" style="stroke: #000000; stroke-width: 0.8"/>
      </g>
     </g>
     <g id="text_8">
      <!-- 20 -->
      <g transform="translate(37.875 261.19708) scale(0.1 -0.1)">
       <use xlink:href="#DejaVuSans-32"/>
       <use xlink:href="#DejaVuSans-30" x="63.623047"/>
      </g>
     </g>
    </g>
    <g id="ytick_3">
     <g id="line2d_8">
      <g>
       <use xlink:href="#mb905538759" x="57.6" y="207.211723" style="stroke: #000000; stroke-width: 0.8"/>
      </g>
     </g>
     <g id="text_9">
      <!-- 40 -->
      <g transform="translate(37.875 211.010942) scale(0.1 -0.1)">
       <use xlink:href="#DejaVuSans-34"/>
       <use xlink:href="#DejaVuSans-30" x="63.623047"/>
      </g>
     </g>
    </g>
    <g id="ytick_4">
     <g id="line2d_9">
      <g>
       <use xlink:href="#mb905538759" x="57.6" y="157.025584" style="stroke: #000000; stroke-width: 0.8"/>
      </g>
     </g>
     <g id="text_10">
      <!-- 60 -->
      <g transform="translate(37.875 160.824803) scale(0.1 -0.1)">
       <defs>
        <path id="DejaVuSans-36" d="M 2113 2584 
Q 1688 2584 1439 2293 
Q 1191 2003 1191 1497 
Q 1191 994 1439 701 
Q 1688 409 2113 409 
Q 2538 409 2786 701 
Q 3034 994 3034 1497 
Q 3034 2003 2786 2293 
Q 2538 2584 2113 2584 
z
M 3366 4563 
L 3366 3988 
Q 3128 4100 2886 4159 
Q 2644 4219 2406 4219 
Q 1781 4219 1451 3797 
Q 1122 3375 1075 2522 
Q 1259 2794 1537 2939 
Q 1816 3084 2150 3084 
Q 2853 3084 3261 2657 
Q 3669 2231 3669 1497 
Q 3669 778 3244 343 
Q 2819 -91 2113 -91 
Q 1303 -91 875 529 
Q 447 1150 447 2328 
Q 447 3434 972 4092 
Q 1497 4750 2381 4750 
Q 2619 4750 2861 4703 
Q 3103 4656 3366 4563 
z
" transform="scale(0.015625)"/>
       </defs>
       <use xlink:href="#DejaVuSans-36"/>
       <use xlink:href="#DejaVuSans-30" x="63.623047"/>
      </g>
     </g>
    </g>
    <g id="ytick_5">
     <g id="line2d_10">
      <g>
       <use xlink:href="#mb905538759" x="57.6" y="106.839446" style="stroke: #000000; stroke-width: 0.8"/>
      </g>
     </g>
     <g id="text_11">
      <!-- 80 -->
      <g transform="translate(37.875 110.638664) scale(0.1 -0.1)">
       <defs>
        <path id="DejaVuSans-38" d="M 2034 2216 
Q 1584 2216 1326 1975 
Q 1069 1734 1069 1313 
Q 1069 891 1326 650 
Q 1584 409 2034 409 
Q 2484 409 2743 651 
Q 3003 894 3003 1313 
Q 3003 1734 2745 1975 
Q 2488 2216 2034 2216 
z
M 1403 2484 
Q 997 2584 770 2862 
Q 544 3141 544 3541 
Q 544 4100 942 4425 
Q 1341 4750 2034 4750 
Q 2731 4750 3128 4425 
Q 3525 4100 3525 3541 
Q 3525 3141 3298 2862 
Q 3072 2584 2669 2484 
Q 3125 2378 3379 2068 
Q 3634 1759 3634 1313 
Q 3634 634 3220 271 
Q 2806 -91 2034 -91 
Q 1263 -91 848 271 
Q 434 634 434 1313 
Q 434 1759 690 2068 
Q 947 2378 1403 2484 
z
M 1172 3481 
Q 1172 3119 1398 2916 
Q 1625 2713 2034 2713 
Q 2441 2713 2670 2916 
Q 2900 3119 2900 3481 
Q 2900 3844 2670 4047 
Q 2441 4250 2034 4250 
Q 1625 4250 1398 4047 
Q 1172 3844 1172 3481 
z
" transform="scale(0.015625)"/>
       </defs>
       <use xlink:href="#DejaVuSans-38"/>
       <use xlink:href="#DejaVuSans-30" x="63.623047"/>
      </g>
     </g>
    </g>
    <g id="ytick_6">
     <g id="line2d_11">
      <g>
       <use xlink:href="#mb905538759" x="57.6" y="56.653307" style="stroke: #000000; stroke-width: 0.8"/>
      </g>
     </g>
     <g id="text_12">
      <!-- 100 -->
      <g transform="translate(31.5125 60.452526) scale(0.1 -0.1)">
       <use xlink:href="#DejaVuSans-31"/>
       <use xlink:href="#DejaVuSans-30" x="63.623047"/>
       <use xlink:href="#DejaVuSans-30" x="127.246094"/>
      </g>
     </g>
    </g>
   </g>
   <g id="patch_63">
    <path d="M 57.6 307.584 
L 57.6 41.472 
" style="fill: none; stroke: #000000; stroke-width: 0.8; stroke-linejoin: miter; stroke-linecap: square"/>
   </g>
   <g id="patch_64">
    <path d="M 414.72 307.584 
L 414.72 41.472 
" style="fill: none; stroke: #000000; stroke-width: 0.8; stroke-linejoin: miter; stroke-linecap: square"/>
   </g>
   <g id="patch_65">
    <path d="M 57.6 307.584 
L 414.72 307.584 
" style="fill: none; stroke: #000000; stroke-width: 0.8; stroke-linejoin: miter; stroke-linecap: square"/>
   </g>
   <g id="patch_66">
    <path d="M 57.6 41.472 
L 414.72 41.472 
" style="fill: none; stroke: #000000; stroke-width: 0.8; stroke-linejoin: miter; stroke-linecap: square"/>
   </g>
  </g>
 </g>
 <defs>
  <clipPath id="pba328d7fed">
   <rect x="57.6" y="41.472" width="357.12" height="266.112"/>
  </clipPath>
 </defs>
</svg>
